%TF.GenerationSoftware,KiCad,Pcbnew,9.0.1*%
%TF.CreationDate,2025-04-26T01:58:34+03:00*%
%TF.ProjectId,solder project,736f6c64-6572-4207-9072-6f6a6563742e,rev?*%
%TF.SameCoordinates,Original*%
%TF.FileFunction,Drillmap*%
%TF.FilePolarity,Positive*%
%FSLAX45Y45*%
G04 Gerber Fmt 4.5, Leading zero omitted, Abs format (unit mm)*
G04 Created by KiCad (PCBNEW 9.0.1) date 2025-04-26 01:58:34*
%MOMM*%
%LPD*%
G01*
G04 APERTURE LIST*
%ADD10C,0.050000*%
%ADD11C,0.200000*%
G04 APERTURE END LIST*
D10*
X7350000Y-4850000D02*
X12000000Y-4850000D01*
X12000000Y-12400000D01*
X7350000Y-12400000D01*
X7350000Y-4850000D01*
D11*
X7608277Y-12713984D02*
X7608277Y-12513984D01*
X7608277Y-12513984D02*
X7655896Y-12513984D01*
X7655896Y-12513984D02*
X7684467Y-12523508D01*
X7684467Y-12523508D02*
X7703515Y-12542555D01*
X7703515Y-12542555D02*
X7713039Y-12561603D01*
X7713039Y-12561603D02*
X7722562Y-12599698D01*
X7722562Y-12599698D02*
X7722562Y-12628269D01*
X7722562Y-12628269D02*
X7713039Y-12666365D01*
X7713039Y-12666365D02*
X7703515Y-12685412D01*
X7703515Y-12685412D02*
X7684467Y-12704460D01*
X7684467Y-12704460D02*
X7655896Y-12713984D01*
X7655896Y-12713984D02*
X7608277Y-12713984D01*
X7808277Y-12713984D02*
X7808277Y-12580650D01*
X7808277Y-12618746D02*
X7817801Y-12599698D01*
X7817801Y-12599698D02*
X7827324Y-12590174D01*
X7827324Y-12590174D02*
X7846372Y-12580650D01*
X7846372Y-12580650D02*
X7865420Y-12580650D01*
X7932086Y-12713984D02*
X7932086Y-12580650D01*
X7932086Y-12513984D02*
X7922562Y-12523508D01*
X7922562Y-12523508D02*
X7932086Y-12533031D01*
X7932086Y-12533031D02*
X7941610Y-12523508D01*
X7941610Y-12523508D02*
X7932086Y-12513984D01*
X7932086Y-12513984D02*
X7932086Y-12533031D01*
X8055896Y-12713984D02*
X8036848Y-12704460D01*
X8036848Y-12704460D02*
X8027324Y-12685412D01*
X8027324Y-12685412D02*
X8027324Y-12513984D01*
X8160658Y-12713984D02*
X8141610Y-12704460D01*
X8141610Y-12704460D02*
X8132086Y-12685412D01*
X8132086Y-12685412D02*
X8132086Y-12513984D01*
X8389229Y-12713984D02*
X8389229Y-12513984D01*
X8389229Y-12513984D02*
X8455896Y-12656841D01*
X8455896Y-12656841D02*
X8522563Y-12513984D01*
X8522563Y-12513984D02*
X8522563Y-12713984D01*
X8703515Y-12713984D02*
X8703515Y-12609222D01*
X8703515Y-12609222D02*
X8693991Y-12590174D01*
X8693991Y-12590174D02*
X8674944Y-12580650D01*
X8674944Y-12580650D02*
X8636848Y-12580650D01*
X8636848Y-12580650D02*
X8617801Y-12590174D01*
X8703515Y-12704460D02*
X8684467Y-12713984D01*
X8684467Y-12713984D02*
X8636848Y-12713984D01*
X8636848Y-12713984D02*
X8617801Y-12704460D01*
X8617801Y-12704460D02*
X8608277Y-12685412D01*
X8608277Y-12685412D02*
X8608277Y-12666365D01*
X8608277Y-12666365D02*
X8617801Y-12647317D01*
X8617801Y-12647317D02*
X8636848Y-12637793D01*
X8636848Y-12637793D02*
X8684467Y-12637793D01*
X8684467Y-12637793D02*
X8703515Y-12628269D01*
X8798753Y-12580650D02*
X8798753Y-12780650D01*
X8798753Y-12590174D02*
X8817801Y-12580650D01*
X8817801Y-12580650D02*
X8855896Y-12580650D01*
X8855896Y-12580650D02*
X8874944Y-12590174D01*
X8874944Y-12590174D02*
X8884467Y-12599698D01*
X8884467Y-12599698D02*
X8893991Y-12618746D01*
X8893991Y-12618746D02*
X8893991Y-12675888D01*
X8893991Y-12675888D02*
X8884467Y-12694936D01*
X8884467Y-12694936D02*
X8874944Y-12704460D01*
X8874944Y-12704460D02*
X8855896Y-12713984D01*
X8855896Y-12713984D02*
X8817801Y-12713984D01*
X8817801Y-12713984D02*
X8798753Y-12704460D01*
X8979705Y-12694936D02*
X8989229Y-12704460D01*
X8989229Y-12704460D02*
X8979705Y-12713984D01*
X8979705Y-12713984D02*
X8970182Y-12704460D01*
X8970182Y-12704460D02*
X8979705Y-12694936D01*
X8979705Y-12694936D02*
X8979705Y-12713984D01*
X8979705Y-12590174D02*
X8989229Y-12599698D01*
X8989229Y-12599698D02*
X8979705Y-12609222D01*
X8979705Y-12609222D02*
X8970182Y-12599698D01*
X8970182Y-12599698D02*
X8979705Y-12590174D01*
X8979705Y-12590174D02*
X8979705Y-12609222D01*
M02*
